<svg xmlns="http://www.w3.org/2000/svg" xmlns:xlink="http://www.w3.org/1999/xlink" width="500" zoomAndPan="magnify" viewBox="0 0 375 374.999991" height="500" preserveAspectRatio="xMidYMid meet" version="1.0"><defs><g/><clipPath id="6e2c51c2eb"><path d="M 155 142 L 219 142 L 219 220.5 L 155 220.5 Z M 155 142 " clip-rule="nonzero"/></clipPath><clipPath id="36db86d546"><path d="M 211 87 L 289.320312 87 L 289.320312 151 L 211 151 Z M 211 87 " clip-rule="nonzero"/></clipPath><clipPath id="4225d98106"><path d="M 155 16.851562 L 219 16.851562 L 219 96 L 155 96 Z M 155 16.851562 " clip-rule="nonzero"/></clipPath><clipPath id="a0d056c57a"><path d="M 85.320312 87 L 164 87 L 164 151 L 85.320312 151 Z M 85.320312 87 " clip-rule="nonzero"/></clipPath></defs><g clip-path="url(#6e2c51c2eb)"><path fill="#ffcc00" d="M 187.320312 196.488281 C 178.5 203.398438 168.136719 204.898438 155.863281 199.535156 C 163.59375 197.535156 170.273438 194.035156 175.683594 188.625 C 171.726562 172.078125 172.683594 156.488281 182.136719 142.625 C 182.726562 155.851562 184.046875 168.714844 187.320312 180.578125 C 190.59375 168.714844 191.863281 155.851562 192.5 142.625 C 201.957031 156.488281 202.910156 172.078125 198.957031 188.625 C 204.363281 194.035156 211.046875 197.535156 218.773438 199.535156 C 206.5 204.898438 196.136719 203.398438 187.320312 196.488281 Z M 187.320312 220.851562 C 192.136719 220.851562 196 216.941406 196 212.171875 C 196 207.351562 192.136719 203.488281 187.320312 203.488281 C 182.5 203.488281 178.636719 207.351562 178.636719 212.171875 C 178.636719 216.941406 182.5 220.851562 187.320312 220.851562 Z M 187.320312 220.851562 " fill-opacity="1" fill-rule="evenodd"/></g><path fill="#00c1b4" d="M 242.226562 173.761719 C 240.820312 184.851562 234.59375 193.261719 222.09375 198.125 C 226.183594 191.308594 228.410156 184.078125 228.410156 176.398438 C 213.910156 167.488281 203.59375 155.808594 200.457031 139.308594 C 210.226562 148.261719 220.226562 156.441406 230.957031 162.488281 C 224.863281 151.761719 216.683594 141.761719 207.773438 132.035156 C 224.273438 135.125 235.957031 145.441406 244.863281 159.941406 C 252.546875 159.941406 259.726562 157.714844 266.59375 153.671875 C 261.726562 166.125 253.320312 172.351562 242.226562 173.761719 Z M 259.457031 190.988281 C 262.820312 187.578125 262.820312 182.078125 259.457031 178.671875 C 256.046875 175.308594 250.546875 175.308594 247.136719 178.671875 C 243.773438 182.078125 243.773438 187.578125 247.136719 190.988281 C 250.546875 194.351562 256.046875 194.351562 259.457031 190.988281 Z M 259.457031 190.988281 " fill-opacity="1" fill-rule="evenodd"/><g clip-path="url(#36db86d546)"><path fill="#94c545" d="M 264.957031 118.851562 C 271.820312 127.671875 273.363281 138.035156 268 150.308594 C 266 142.578125 262.5 135.898438 257.046875 130.488281 C 240.5 134.441406 224.957031 133.488281 211.09375 124.035156 C 224.320312 123.441406 237.136719 122.125 249 118.851562 C 237.136719 115.578125 224.320312 114.308594 211.09375 113.671875 C 224.957031 104.214844 240.5 103.261719 257.046875 107.214844 C 262.5 101.808594 266 95.125 268 87.398438 C 273.363281 99.671875 271.820312 110.035156 264.957031 118.851562 Z M 289.320312 118.851562 C 289.320312 114.035156 285.410156 110.171875 280.636719 110.171875 C 275.820312 110.171875 271.910156 114.035156 271.910156 118.851562 C 271.910156 123.671875 275.820312 127.535156 280.636719 127.535156 C 285.410156 127.535156 289.320312 123.671875 289.320312 118.851562 Z M 289.320312 118.851562 " fill-opacity="1" fill-rule="evenodd"/></g><path fill="#ff8812" d="M 242.226562 63.941406 C 253.320312 65.351562 261.726562 71.578125 266.59375 84.078125 C 259.726562 79.988281 252.546875 77.761719 244.863281 77.761719 C 235.957031 92.261719 224.273438 102.578125 207.773438 105.714844 C 216.683594 95.941406 224.863281 85.941406 230.957031 75.214844 C 220.226562 81.308594 210.226562 89.488281 200.457031 98.398438 C 203.59375 81.898438 213.910156 70.214844 228.410156 61.308594 C 228.410156 53.625 226.183594 46.441406 222.09375 39.578125 C 234.59375 44.441406 240.820312 52.851562 242.226562 63.941406 Z M 259.457031 46.714844 C 256.046875 43.351562 250.546875 43.351562 247.136719 46.714844 C 243.773438 50.125 243.773438 55.625 247.136719 59.035156 C 250.546875 62.398438 256.046875 62.398438 259.457031 59.035156 C 262.820312 55.625 262.820312 50.125 259.457031 46.714844 Z M 259.457031 46.714844 " fill-opacity="1" fill-rule="evenodd"/><g clip-path="url(#4225d98106)"><path fill="#f83b4b" d="M 187.320312 41.214844 C 178.5 34.351562 168.136719 32.808594 155.863281 38.171875 C 163.59375 40.171875 170.273438 43.671875 175.683594 49.125 C 171.726562 65.671875 172.683594 81.214844 182.136719 95.078125 C 182.726562 81.851562 184.046875 69.035156 187.320312 57.171875 C 190.59375 69.035156 191.863281 81.851562 192.5 95.078125 C 201.957031 81.214844 202.910156 65.671875 198.957031 49.125 C 204.363281 43.671875 211.046875 40.171875 218.773438 38.171875 C 206.5 32.808594 196.136719 34.351562 187.320312 41.214844 Z M 187.320312 16.851562 C 192.136719 16.851562 196 20.761719 196 25.535156 C 196 30.351562 192.136719 34.261719 187.320312 34.261719 C 182.5 34.261719 178.636719 30.351562 178.636719 25.535156 C 178.636719 20.761719 182.5 16.851562 187.320312 16.851562 Z M 187.320312 16.851562 " fill-opacity="1" fill-rule="evenodd"/></g><path fill="#b64186" d="M 132.410156 63.941406 C 121.320312 65.351562 112.910156 71.578125 108.046875 84.078125 C 114.863281 79.988281 122.09375 77.761719 129.773438 77.761719 C 138.683594 92.261719 150.363281 102.578125 166.863281 105.714844 C 157.910156 95.941406 149.726562 85.941406 143.683594 75.214844 C 154.410156 81.308594 164.410156 89.488281 174.136719 98.398438 C 171.046875 81.898438 160.726562 70.214844 146.226562 61.308594 C 146.226562 53.625 148.457031 46.441406 152.5 39.578125 C 140.046875 44.441406 133.820312 52.851562 132.410156 63.941406 Z M 115.183594 46.714844 C 118.59375 43.351562 124.09375 43.351562 127.5 46.714844 C 130.863281 50.125 130.863281 55.625 127.5 59.035156 C 124.09375 62.398438 118.59375 62.398438 115.183594 59.035156 C 111.820312 55.625 111.820312 50.125 115.183594 46.714844 Z M 115.183594 46.714844 " fill-opacity="1" fill-rule="evenodd"/><g clip-path="url(#a0d056c57a)"><path fill="#3c64a4" d="M 109.683594 118.851562 C 102.773438 127.671875 101.273438 138.035156 106.636719 150.308594 C 108.636719 142.578125 112.136719 135.898438 117.546875 130.488281 C 134.09375 134.441406 149.683594 133.488281 163.546875 124.035156 C 150.320312 123.441406 137.457031 122.125 125.59375 118.851562 C 137.457031 115.578125 150.320312 114.308594 163.546875 113.671875 C 149.683594 104.214844 134.09375 103.261719 117.546875 107.214844 C 112.136719 101.808594 108.636719 95.125 106.636719 87.398438 C 101.273438 99.671875 102.773438 110.035156 109.683594 118.851562 Z M 85.320312 118.851562 C 85.320312 114.035156 89.226562 110.171875 94 110.171875 C 98.820312 110.171875 102.683594 114.035156 102.683594 118.851562 C 102.683594 123.671875 98.820312 127.535156 94 127.535156 C 89.226562 127.535156 85.320312 123.671875 85.320312 118.851562 Z M 85.320312 118.851562 " fill-opacity="1" fill-rule="evenodd"/></g><path fill="#00abf3" d="M 132.410156 173.761719 C 133.820312 184.851562 140.046875 193.261719 152.5 198.125 C 148.457031 191.308594 146.226562 184.078125 146.226562 176.398438 C 160.726562 167.488281 171.046875 155.808594 174.136719 139.308594 C 164.410156 148.261719 154.410156 156.441406 143.683594 162.488281 C 149.726562 151.761719 157.910156 141.761719 166.863281 132.035156 C 150.363281 135.125 138.683594 145.441406 129.773438 159.941406 C 122.09375 159.941406 114.863281 157.714844 108.046875 153.671875 C 112.910156 166.125 121.320312 172.351562 132.410156 173.761719 Z M 115.183594 190.988281 C 111.820312 187.578125 111.820312 182.078125 115.183594 178.671875 C 118.59375 175.308594 124.09375 175.308594 127.5 178.671875 C 130.863281 182.078125 130.863281 187.578125 127.5 190.988281 C 124.09375 194.351562 118.59375 194.351562 115.183594 190.988281 Z M 115.183594 190.988281 " fill-opacity="1" fill-rule="evenodd"/><g fill="#ff9933" fill-opacity="1"><g transform="translate(95.236149, 264.512356)"><g><path d="M 30.125 -18.4375 L 18.546875 -18.4375 L 18.546875 -13.421875 C 19.691406 -14.097656 21.007812 -14.4375 22.5 -14.4375 C 24.207031 -14.4375 25.601562 -13.90625 26.6875 -12.84375 C 27.78125 -11.789062 28.328125 -10.328125 28.328125 -8.453125 C 28.328125 -7.398438 28.128906 -6.21875 27.734375 -4.90625 C 27.335938 -3.601562 26.695312 -2.289062 25.8125 -0.96875 L 21.59375 -3.3125 C 22.125 -4.050781 22.578125 -4.816406 22.953125 -5.609375 C 23.328125 -6.398438 23.515625 -7.21875 23.515625 -8.0625 C 23.515625 -8.945312 23.328125 -9.566406 22.953125 -9.921875 C 22.578125 -10.285156 22.085938 -10.46875 21.484375 -10.46875 C 20.929688 -10.46875 20.394531 -10.300781 19.875 -9.96875 C 19.363281 -9.632812 18.921875 -9.273438 18.546875 -8.890625 L 18.546875 0 L 13.71875 0 L 13.71875 -4.578125 C 12.925781 -4.117188 12.125 -3.769531 11.3125 -3.53125 C 10.507812 -3.289062 9.582031 -3.171875 8.53125 -3.171875 C 7.207031 -3.171875 6 -3.410156 4.90625 -3.890625 C 3.820312 -4.367188 2.953125 -5.09375 2.296875 -6.0625 C 1.648438 -7.039062 1.328125 -8.25 1.328125 -9.6875 C 1.328125 -11 1.648438 -12.144531 2.296875 -13.125 C 2.953125 -14.113281 3.851562 -14.878906 5 -15.421875 C 6.15625 -15.960938 7.488281 -16.234375 9 -16.234375 C 9.675781 -16.234375 10.351562 -16.203125 11.03125 -16.140625 C 11.71875 -16.085938 12.253906 -16.007812 12.640625 -15.90625 L 12.28125 -11.921875 C 11.507812 -12.109375 10.65625 -12.203125 9.71875 -12.203125 C 8.59375 -12.203125 7.71875 -11.976562 7.09375 -11.53125 C 6.46875 -11.09375 6.15625 -10.476562 6.15625 -9.6875 C 6.15625 -8.726562 6.453125 -8.066406 7.046875 -7.703125 C 7.648438 -7.335938 8.300781 -7.15625 9 -7.15625 C 10.007812 -7.15625 10.90625 -7.382812 11.6875 -7.84375 C 12.46875 -8.300781 13.144531 -8.832031 13.71875 -9.4375 L 13.71875 -18.4375 L 0 -18.4375 L 0 -22.390625 L 30.125 -22.390625 Z M 30.125 -18.4375 "/></g></g></g><g fill="#ff9933" fill-opacity="1"><g transform="translate(116.656146, 264.512356)"><g><path d="M 1.625 8.390625 C 1 8.703125 0.25 8.988281 -0.625 9.25 C -1.5 9.507812 -2.550781 9.640625 -3.78125 9.640625 C -4.976562 9.640625 -6.046875 9.414062 -6.984375 8.96875 C -7.921875 8.53125 -8.660156 7.921875 -9.203125 7.140625 C -9.742188 6.359375 -10.015625 5.453125 -10.015625 4.421875 C -10.015625 2.703125 -9.40625 1.332031 -8.1875 0.3125 C -6.976562 -0.707031 -5.242188 -1.289062 -2.984375 -1.4375 L -2.5625 2.265625 C -3.78125 2.335938 -4.617188 2.570312 -5.078125 2.96875 C -5.535156 3.363281 -5.765625 3.828125 -5.765625 4.359375 C -5.765625 5.460938 -5.03125 6.015625 -3.5625 6.015625 C -3.007812 6.015625 -2.445312 5.929688 -1.875 5.765625 C -1.300781 5.597656 -0.601562 5.304688 0.21875 4.890625 Z M 1.625 8.390625 "/></g></g></g><g fill="#ff9933" fill-opacity="1"><g transform="translate(124.864203, 264.512356)"><g><path d="M 23.046875 -22.390625 L 23.046875 -18.4375 L 19.625 -18.4375 L 19.625 0 L 14.796875 0 L 14.796875 -5.875 C 13.910156 -5.414062 13.050781 -5.082031 12.21875 -4.875 C 11.394531 -4.675781 10.429688 -4.578125 9.328125 -4.578125 C 8.148438 -4.578125 7.144531 -4.738281 6.3125 -5.0625 C 5.488281 -5.382812 4.8125 -5.820312 4.28125 -6.375 C 3.632812 -7.039062 3.164062 -7.8125 2.875 -8.6875 C 2.59375 -9.570312 2.453125 -10.816406 2.453125 -12.421875 L 2.453125 -18.4375 L 0 -18.4375 L 0 -22.390625 Z M 14.796875 -18.4375 L 8.96875 -18.4375 L 14.796875 -10.84375 Z M 8.03125 -9.140625 C 8.457031 -8.734375 9.164062 -8.53125 10.15625 -8.53125 C 10.632812 -8.53125 11.097656 -8.585938 11.546875 -8.703125 C 12.003906 -8.828125 12.441406 -8.988281 12.859375 -9.1875 L 7.125 -16.625 L 7.125 -12.703125 C 7.125 -11.578125 7.195312 -10.785156 7.34375 -10.328125 C 7.488281 -9.867188 7.71875 -9.472656 8.03125 -9.140625 Z M 8.03125 -9.140625 "/></g></g></g><g fill="#ff9933" fill-opacity="1"><g transform="translate(147.364248, 264.512356)"><g><path d="M -8.25 -22.140625 C -8.675781 -22.984375 -8.972656 -23.742188 -9.140625 -24.421875 C -9.304688 -25.109375 -9.390625 -25.773438 -9.390625 -26.421875 C -9.390625 -28.203125 -8.773438 -29.617188 -7.546875 -30.671875 C -6.328125 -31.722656 -4.648438 -32.25 -2.515625 -32.25 C -0.597656 -32.25 1 -31.804688 2.28125 -30.921875 C 3.570312 -30.035156 4.617188 -28.847656 5.421875 -27.359375 C 6.222656 -25.867188 6.863281 -24.210938 7.34375 -22.390625 L 11.125 -22.390625 L 11.125 -18.4375 L 7.703125 -18.4375 L 7.703125 0 L 2.875 0 L 2.875 -18.4375 L 0 -18.4375 L 0 -22.390625 L 3.0625 -22.390625 C 2.457031 -24.304688 1.75 -25.769531 0.9375 -26.78125 C 0.125 -27.789062 -0.859375 -28.296875 -2.015625 -28.296875 C -2.878906 -28.296875 -3.519531 -28.054688 -3.9375 -27.578125 C -4.363281 -27.097656 -4.578125 -26.484375 -4.578125 -25.734375 C -4.578125 -25.015625 -4.476562 -24.359375 -4.28125 -23.765625 C -4.09375 -23.179688 -3.863281 -22.628906 -3.59375 -22.109375 Z M -8.25 -22.140625 "/></g></g></g><g fill="#ff9933" fill-opacity="1"><g transform="translate(157.948269, 264.512356)"><g/></g></g><g fill="#ff9933" fill-opacity="1"><g transform="translate(166.300281, 264.512356)"><g><path d="M 23.90625 -18.4375 L 23.90625 0 L 19.078125 0 L 19.078125 -8.421875 C 18.429688 -8.273438 17.765625 -8.171875 17.078125 -8.109375 C 16.398438 -8.054688 15.695312 -8.03125 14.96875 -8.03125 C 13.457031 -8.03125 12.15625 -8.160156 11.0625 -8.421875 C 9.976562 -8.679688 9.085938 -8.96875 8.390625 -9.28125 C 8.148438 -9.164062 7.894531 -9.035156 7.625 -8.890625 C 8.519531 -7.878906 9.550781 -6.820312 10.71875 -5.71875 C 11.894531 -4.613281 13.125 -3.546875 14.40625 -2.515625 L 11.34375 0.609375 C 9.375 -1.191406 7.601562 -2.894531 6.03125 -4.5 C 4.457031 -6.101562 3.25 -7.457031 2.40625 -8.5625 C 1.851562 -9.28125 1.5 -9.890625 1.34375 -10.390625 C 1.1875 -10.898438 1.109375 -11.359375 1.109375 -11.765625 C 1.109375 -12.367188 1.316406 -12.96875 1.734375 -13.5625 C 2.160156 -14.164062 2.898438 -14.46875 3.953125 -14.46875 C 5.054688 -14.46875 6.003906 -14.109375 6.796875 -13.390625 C 7.066406 -13.847656 7.253906 -14.335938 7.359375 -14.859375 C 7.472656 -15.390625 7.53125 -15.929688 7.53125 -16.484375 C 7.53125 -17.128906 7.441406 -17.78125 7.265625 -18.4375 L 0 -18.4375 L 0 -22.390625 L 27.28125 -22.390625 L 27.28125 -18.4375 Z M 14.546875 -11.984375 C 15.410156 -11.984375 16.195312 -12.019531 16.90625 -12.09375 C 17.613281 -12.164062 18.335938 -12.3125 19.078125 -12.53125 L 19.078125 -18.4375 L 12.03125 -18.4375 C 12.125 -18.09375 12.195312 -17.695312 12.25 -17.25 C 12.3125 -16.8125 12.34375 -16.304688 12.34375 -15.734375 C 12.34375 -15.015625 12.269531 -14.363281 12.125 -13.78125 C 11.988281 -13.207031 11.785156 -12.691406 11.515625 -12.234375 C 11.992188 -12.160156 12.476562 -12.097656 12.96875 -12.046875 C 13.46875 -12.003906 13.992188 -11.984375 14.546875 -11.984375 Z M 14.546875 -11.984375 "/></g></g></g><g fill="#ff9933" fill-opacity="1"><g transform="translate(193.08433, 264.512356)"><g><path d="M -7.953125 -27.828125 C -7.953125 -28.566406 -7.691406 -29.203125 -7.171875 -29.734375 C -6.660156 -30.265625 -6.035156 -30.53125 -5.296875 -30.53125 C -4.546875 -30.53125 -3.914062 -30.265625 -3.40625 -29.734375 C -2.90625 -29.203125 -2.65625 -28.566406 -2.65625 -27.828125 C -2.65625 -27.054688 -2.90625 -26.410156 -3.40625 -25.890625 C -3.914062 -25.378906 -4.546875 -25.125 -5.296875 -25.125 C -6.035156 -25.125 -6.660156 -25.378906 -7.171875 -25.890625 C -7.691406 -26.410156 -7.953125 -27.054688 -7.953125 -27.828125 Z M -7.953125 -27.828125 "/></g></g></g><g fill="#ff9933" fill-opacity="1"><g transform="translate(193.08433, 264.512356)"><g><path d="M 14.546875 -11.984375 C 15.316406 -11.984375 16.007812 -12.015625 16.625 -12.078125 C 17.25 -12.140625 17.910156 -12.253906 18.609375 -12.421875 L 18.96875 -8.359375 C 18.269531 -8.234375 17.582031 -8.144531 16.90625 -8.09375 C 16.238281 -8.050781 15.59375 -8.03125 14.96875 -8.03125 C 13.457031 -8.03125 12.15625 -8.160156 11.0625 -8.421875 C 9.976562 -8.679688 9.085938 -8.96875 8.390625 -9.28125 C 8.148438 -9.164062 7.894531 -9.035156 7.625 -8.890625 C 8.519531 -7.878906 9.550781 -6.820312 10.71875 -5.71875 C 11.894531 -4.613281 13.125 -3.546875 14.40625 -2.515625 L 11.34375 0.609375 C 9.375 -1.191406 7.601562 -2.894531 6.03125 -4.5 C 4.457031 -6.101562 3.25 -7.457031 2.40625 -8.5625 C 1.851562 -9.28125 1.5 -9.890625 1.34375 -10.390625 C 1.1875 -10.898438 1.109375 -11.359375 1.109375 -11.765625 C 1.109375 -12.367188 1.316406 -12.96875 1.734375 -13.5625 C 2.160156 -14.164062 2.898438 -14.46875 3.953125 -14.46875 C 5.054688 -14.46875 6.003906 -14.109375 6.796875 -13.390625 C 7.066406 -13.847656 7.253906 -14.335938 7.359375 -14.859375 C 7.472656 -15.390625 7.53125 -15.929688 7.53125 -16.484375 C 7.53125 -17.128906 7.441406 -17.78125 7.265625 -18.4375 L 0 -18.4375 L 0 -22.390625 L 18.46875 -22.390625 L 18.46875 -18.4375 L 12.03125 -18.4375 C 12.125 -18.09375 12.195312 -17.695312 12.25 -17.25 C 12.3125 -16.8125 12.34375 -16.304688 12.34375 -15.734375 C 12.34375 -15.015625 12.269531 -14.363281 12.125 -13.78125 C 11.988281 -13.207031 11.785156 -12.691406 11.515625 -12.234375 C 11.992188 -12.160156 12.476562 -12.097656 12.96875 -12.046875 C 13.46875 -12.003906 13.992188 -11.984375 14.546875 -11.984375 Z M 14.546875 -11.984375 "/></g></g></g><g fill="#ff9933" fill-opacity="1"><g transform="translate(208.744355, 264.512356)"><g><path d="M 30.125 -18.4375 L 18.546875 -18.4375 L 18.546875 -13.421875 C 19.691406 -14.097656 21.007812 -14.4375 22.5 -14.4375 C 24.207031 -14.4375 25.601562 -13.90625 26.6875 -12.84375 C 27.78125 -11.789062 28.328125 -10.328125 28.328125 -8.453125 C 28.328125 -7.398438 28.128906 -6.21875 27.734375 -4.90625 C 27.335938 -3.601562 26.695312 -2.289062 25.8125 -0.96875 L 21.59375 -3.3125 C 22.125 -4.050781 22.578125 -4.816406 22.953125 -5.609375 C 23.328125 -6.398438 23.515625 -7.21875 23.515625 -8.0625 C 23.515625 -8.945312 23.328125 -9.566406 22.953125 -9.921875 C 22.578125 -10.285156 22.085938 -10.46875 21.484375 -10.46875 C 20.929688 -10.46875 20.394531 -10.300781 19.875 -9.96875 C 19.363281 -9.632812 18.921875 -9.273438 18.546875 -8.890625 L 18.546875 0 L 13.71875 0 L 13.71875 -4.578125 C 12.925781 -4.117188 12.125 -3.769531 11.3125 -3.53125 C 10.507812 -3.289062 9.582031 -3.171875 8.53125 -3.171875 C 7.207031 -3.171875 6 -3.410156 4.90625 -3.890625 C 3.820312 -4.367188 2.953125 -5.09375 2.296875 -6.0625 C 1.648438 -7.039062 1.328125 -8.25 1.328125 -9.6875 C 1.328125 -11 1.648438 -12.144531 2.296875 -13.125 C 2.953125 -14.113281 3.851562 -14.878906 5 -15.421875 C 6.15625 -15.960938 7.488281 -16.234375 9 -16.234375 C 9.675781 -16.234375 10.351562 -16.203125 11.03125 -16.140625 C 11.71875 -16.085938 12.253906 -16.007812 12.640625 -15.90625 L 12.28125 -11.921875 C 11.507812 -12.109375 10.65625 -12.203125 9.71875 -12.203125 C 8.59375 -12.203125 7.71875 -11.976562 7.09375 -11.53125 C 6.46875 -11.09375 6.15625 -10.476562 6.15625 -9.6875 C 6.15625 -8.726562 6.453125 -8.066406 7.046875 -7.703125 C 7.648438 -7.335938 8.300781 -7.15625 9 -7.15625 C 10.007812 -7.15625 10.90625 -7.382812 11.6875 -7.84375 C 12.46875 -8.300781 13.144531 -8.832031 13.71875 -9.4375 L 13.71875 -18.4375 L 0 -18.4375 L 0 -22.390625 L 30.125 -22.390625 Z M 30.125 -18.4375 "/></g></g></g><g fill="#ff9933" fill-opacity="1"><g transform="translate(230.164352, 264.512356)"><g><path d="M 1.625 8.390625 C 1 8.703125 0.25 8.988281 -0.625 9.25 C -1.5 9.507812 -2.550781 9.640625 -3.78125 9.640625 C -4.976562 9.640625 -6.046875 9.414062 -6.984375 8.96875 C -7.921875 8.53125 -8.660156 7.921875 -9.203125 7.140625 C -9.742188 6.359375 -10.015625 5.453125 -10.015625 4.421875 C -10.015625 2.703125 -9.40625 1.332031 -8.1875 0.3125 C -6.976562 -0.707031 -5.242188 -1.289062 -2.984375 -1.4375 L -2.5625 2.265625 C -3.78125 2.335938 -4.617188 2.570312 -5.078125 2.96875 C -5.535156 3.363281 -5.765625 3.828125 -5.765625 4.359375 C -5.765625 5.460938 -5.03125 6.015625 -3.5625 6.015625 C -3.007812 6.015625 -2.445312 5.929688 -1.875 5.765625 C -1.300781 5.597656 -0.601562 5.304688 0.21875 4.890625 Z M 1.625 8.390625 "/></g></g></g><g fill="#ff9933" fill-opacity="1"><g transform="translate(238.372409, 264.512356)"><g><path d="M 19.578125 -18.4375 L 19.578125 0 L 14.765625 0 L 14.765625 -10.765625 L 11.484375 -10.765625 C 10.160156 -10.765625 9.175781 -10.695312 8.53125 -10.5625 C 7.882812 -10.4375 7.367188 -10.21875 6.984375 -9.90625 C 6.453125 -9.46875 6.1875 -8.851562 6.1875 -8.0625 C 6.1875 -7.25 6.554688 -6.40625 7.296875 -5.53125 C 8.046875 -4.65625 9.140625 -3.675781 10.578125 -2.59375 L 7.453125 0.609375 C 6.328125 -0.328125 5.304688 -1.289062 4.390625 -2.28125 C 3.484375 -3.28125 2.753906 -4.328125 2.203125 -5.421875 C 1.648438 -6.515625 1.375 -7.660156 1.375 -8.859375 C 1.375 -9.722656 1.535156 -10.5 1.859375 -11.1875 C 2.179688 -11.882812 2.601562 -12.460938 3.125 -12.921875 C 3.851562 -13.546875 4.722656 -14 5.734375 -14.28125 C 6.753906 -14.570312 8.203125 -14.71875 10.078125 -14.71875 L 14.765625 -14.71875 L 14.765625 -18.4375 L 0 -18.4375 L 0 -22.390625 L 22.96875 -22.390625 L 22.96875 -18.4375 Z M 19.578125 -18.4375 "/></g></g></g><g fill="#ff9933" fill-opacity="1"><g transform="translate(260.83645, 264.512356)"><g><path d="M -8.25 -22.140625 C -8.675781 -22.984375 -8.972656 -23.742188 -9.140625 -24.421875 C -9.304688 -25.109375 -9.390625 -25.773438 -9.390625 -26.421875 C -9.390625 -28.203125 -8.773438 -29.617188 -7.546875 -30.671875 C -6.328125 -31.722656 -4.648438 -32.25 -2.515625 -32.25 C -0.597656 -32.25 1 -31.804688 2.28125 -30.921875 C 3.570312 -30.035156 4.617188 -28.847656 5.421875 -27.359375 C 6.222656 -25.867188 6.863281 -24.210938 7.34375 -22.390625 L 11.125 -22.390625 L 11.125 -18.4375 L 7.703125 -18.4375 L 7.703125 0 L 2.875 0 L 2.875 -18.4375 L 0 -18.4375 L 0 -22.390625 L 3.0625 -22.390625 C 2.457031 -24.304688 1.75 -25.769531 0.9375 -26.78125 C 0.125 -27.789062 -0.859375 -28.296875 -2.015625 -28.296875 C -2.878906 -28.296875 -3.519531 -28.054688 -3.9375 -27.578125 C -4.363281 -27.097656 -4.578125 -26.484375 -4.578125 -25.734375 C -4.578125 -25.015625 -4.476562 -24.359375 -4.28125 -23.765625 C -4.09375 -23.179688 -3.863281 -22.628906 -3.59375 -22.109375 Z M -8.25 -22.140625 "/></g></g></g><g fill="#ff9933" fill-opacity="1"><g transform="translate(271.415825, 264.512356)"><g/></g></g><g fill="#006a4e" fill-opacity="1"><g transform="translate(139.814806, 291.212354)"><g><path d="M 7.96875 -6.140625 L 7.96875 0 L 6.359375 0 L 6.359375 -2.8125 C 6.140625 -2.757812 5.914062 -2.722656 5.6875 -2.703125 C 5.46875 -2.679688 5.234375 -2.671875 4.984375 -2.671875 C 4.484375 -2.671875 4.050781 -2.710938 3.6875 -2.796875 C 3.320312 -2.890625 3.023438 -2.988281 2.796875 -3.09375 C 2.710938 -3.050781 2.628906 -3.007812 2.546875 -2.96875 C 2.835938 -2.625 3.175781 -2.269531 3.5625 -1.90625 C 3.957031 -1.539062 4.367188 -1.1875 4.796875 -0.84375 L 3.78125 0.203125 C 3.125 -0.398438 2.53125 -0.96875 2 -1.5 C 1.476562 -2.03125 1.078125 -2.484375 0.796875 -2.859375 C 0.617188 -3.097656 0.503906 -3.300781 0.453125 -3.46875 C 0.398438 -3.632812 0.375 -3.785156 0.375 -3.921875 C 0.375 -4.117188 0.441406 -4.316406 0.578125 -4.515625 C 0.722656 -4.722656 0.96875 -4.828125 1.3125 -4.828125 C 1.6875 -4.828125 2.003906 -4.707031 2.265625 -4.46875 C 2.359375 -4.613281 2.421875 -4.773438 2.453125 -4.953125 C 2.492188 -5.128906 2.515625 -5.3125 2.515625 -5.5 C 2.515625 -5.707031 2.484375 -5.921875 2.421875 -6.140625 L 0 -6.140625 L 0 -7.46875 L 9.09375 -7.46875 L 9.09375 -6.140625 Z M 4.84375 -4 C 5.132812 -4 5.394531 -4.007812 5.625 -4.03125 C 5.863281 -4.050781 6.109375 -4.097656 6.359375 -4.171875 L 6.359375 -6.140625 L 4.015625 -6.140625 C 4.046875 -6.023438 4.066406 -5.894531 4.078125 -5.75 C 4.097656 -5.601562 4.109375 -5.4375 4.109375 -5.25 C 4.109375 -5.007812 4.082031 -4.789062 4.03125 -4.59375 C 3.988281 -4.40625 3.925781 -4.234375 3.84375 -4.078125 C 4 -4.054688 4.160156 -4.035156 4.328125 -4.015625 C 4.492188 -4.003906 4.664062 -4 4.84375 -4 Z M 4.84375 -4 "/></g></g></g><g fill="#006a4e" fill-opacity="1"><g transform="translate(148.742822, 291.212354)"><g><path d="M 4.03125 -0.859375 C 4.25 -0.921875 4.425781 -0.992188 4.5625 -1.078125 C 4.707031 -1.171875 4.78125 -1.300781 4.78125 -1.46875 C 4.78125 -1.65625 4.6875 -1.800781 4.5 -1.90625 C 4.3125 -2.007812 4.007812 -2.0625 3.59375 -2.0625 C 3.113281 -2.0625 2.75 -1.972656 2.5 -1.796875 C 2.257812 -1.628906 2.140625 -1.398438 2.140625 -1.109375 C 2.140625 -0.898438 2.1875 -0.703125 2.28125 -0.515625 C 2.375 -0.328125 2.539062 -0.117188 2.78125 0.109375 C 3.019531 0.335938 3.367188 0.617188 3.828125 0.953125 L 2.78125 2.03125 C 2.320312 1.65625 1.925781 1.296875 1.59375 0.953125 C 1.257812 0.617188 1 0.28125 0.8125 -0.0625 C 0.632812 -0.414062 0.546875 -0.796875 0.546875 -1.203125 C 0.546875 -1.503906 0.601562 -1.769531 0.71875 -2 C 0.832031 -2.238281 0.984375 -2.445312 1.171875 -2.625 C 1.023438 -2.789062 0.90625 -2.976562 0.8125 -3.1875 C 0.726562 -3.40625 0.6875 -3.65625 0.6875 -3.9375 C 0.6875 -4.1875 0.726562 -4.398438 0.8125 -4.578125 C 0.90625 -4.765625 1.03125 -4.914062 1.1875 -5.03125 C 1.382812 -5.1875 1.617188 -5.296875 1.890625 -5.359375 C 2.171875 -5.429688 2.554688 -5.46875 3.046875 -5.46875 L 4.265625 -5.46875 L 4.265625 -6.140625 L 0 -6.140625 L 0 -7.46875 L 7.015625 -7.46875 L 7.015625 -6.140625 L 5.875 -6.140625 L 5.875 -4.15625 L 3.09375 -4.15625 C 2.875 -4.15625 2.71875 -4.144531 2.625 -4.125 C 2.539062 -4.101562 2.46875 -4.066406 2.40625 -4.015625 C 2.300781 -3.941406 2.25 -3.820312 2.25 -3.65625 C 2.25 -3.519531 2.304688 -3.382812 2.421875 -3.25 C 2.796875 -3.34375 3.203125 -3.390625 3.640625 -3.390625 C 4.285156 -3.390625 4.804688 -3.300781 5.203125 -3.125 C 5.609375 -2.945312 5.898438 -2.710938 6.078125 -2.421875 C 6.265625 -2.128906 6.359375 -1.828125 6.359375 -1.515625 C 6.359375 -0.523438 5.726562 0.113281 4.46875 0.40625 Z M 4.03125 -0.859375 "/></g></g></g><g fill="#006a4e" fill-opacity="1"><g transform="translate(155.582841, 291.212354)"><g><path d="M 10.046875 -6.140625 L 6.1875 -6.140625 L 6.1875 -4.46875 C 6.5625 -4.695312 7 -4.8125 7.5 -4.8125 C 8.070312 -4.8125 8.535156 -4.632812 8.890625 -4.28125 C 9.253906 -3.925781 9.4375 -3.4375 9.4375 -2.8125 C 9.4375 -2.46875 9.367188 -2.078125 9.234375 -1.640625 C 9.109375 -1.203125 8.898438 -0.765625 8.609375 -0.328125 L 7.203125 -1.109375 C 7.378906 -1.347656 7.53125 -1.597656 7.65625 -1.859375 C 7.78125 -2.128906 7.84375 -2.40625 7.84375 -2.6875 C 7.84375 -2.976562 7.78125 -3.179688 7.65625 -3.296875 C 7.53125 -3.421875 7.363281 -3.484375 7.15625 -3.484375 C 6.976562 -3.484375 6.800781 -3.425781 6.625 -3.3125 C 6.457031 -3.207031 6.3125 -3.09375 6.1875 -2.96875 L 6.1875 0 L 4.578125 0 L 4.578125 -1.53125 C 4.304688 -1.375 4.035156 -1.253906 3.765625 -1.171875 C 3.503906 -1.097656 3.195312 -1.0625 2.84375 -1.0625 C 2.40625 -1.0625 2.003906 -1.140625 1.640625 -1.296875 C 1.273438 -1.453125 0.984375 -1.691406 0.765625 -2.015625 C 0.546875 -2.347656 0.4375 -2.753906 0.4375 -3.234375 C 0.4375 -3.671875 0.546875 -4.050781 0.765625 -4.375 C 0.984375 -4.707031 1.285156 -4.960938 1.671875 -5.140625 C 2.054688 -5.316406 2.5 -5.40625 3 -5.40625 C 3.226562 -5.40625 3.453125 -5.394531 3.671875 -5.375 C 3.898438 -5.363281 4.082031 -5.335938 4.21875 -5.296875 L 4.09375 -3.96875 C 3.832031 -4.03125 3.546875 -4.0625 3.234375 -4.0625 C 2.859375 -4.0625 2.566406 -3.988281 2.359375 -3.84375 C 2.148438 -3.695312 2.046875 -3.492188 2.046875 -3.234375 C 2.046875 -2.910156 2.144531 -2.6875 2.34375 -2.5625 C 2.550781 -2.445312 2.769531 -2.390625 3 -2.390625 C 3.332031 -2.390625 3.628906 -2.460938 3.890625 -2.609375 C 4.148438 -2.765625 4.378906 -2.941406 4.578125 -3.140625 L 4.578125 -6.140625 L 0 -6.140625 L 0 -7.46875 L 10.046875 -7.46875 Z M 10.046875 -6.140625 "/></g></g></g><g fill="#006a4e" fill-opacity="1"><g transform="translate(165.458862, 291.212354)"><g><path d="M 2.5625 -6.140625 L 2.5625 0 L 0.953125 0 L 0.953125 -6.140625 L 0 -6.140625 L 0 -7.46875 L 3.703125 -7.46875 L 3.703125 -6.140625 Z M 2.5625 -6.140625 "/></g></g></g><g fill="#006a4e" fill-opacity="1"><g transform="translate(168.98687, 291.212354)"><g><path d="M 0.953125 -6.140625 L 0 -6.140625 L 0 -7.46875 L 0.90625 -7.46875 C 0.6875 -7.914062 0.578125 -8.34375 0.578125 -8.75 C 0.578125 -9.363281 0.796875 -9.847656 1.234375 -10.203125 C 1.671875 -10.566406 2.273438 -10.75 3.046875 -10.75 C 3.785156 -10.75 4.441406 -10.59375 5.015625 -10.28125 C 5.585938 -9.96875 6.085938 -9.554688 6.515625 -9.046875 C 6.953125 -8.535156 7.320312 -7.976562 7.625 -7.375 L 6.03125 -7.375 C 5.632812 -8.03125 5.207031 -8.53125 4.75 -8.875 C 4.289062 -9.21875 3.789062 -9.390625 3.25 -9.390625 C 2.90625 -9.390625 2.644531 -9.3125 2.46875 -9.15625 C 2.289062 -9 2.203125 -8.769531 2.203125 -8.46875 C 2.203125 -8.28125 2.222656 -8.097656 2.265625 -7.921875 C 2.316406 -7.753906 2.378906 -7.601562 2.453125 -7.46875 L 3.703125 -7.46875 L 3.703125 -6.140625 L 2.5625 -6.140625 L 2.5625 0 L 0.953125 0 Z M 0.953125 -6.140625 "/></g></g></g><g fill="#006a4e" fill-opacity="1"><g transform="translate(172.514877, 291.212354)"><g><path d="M 5 -0.859375 L 3.953125 0.203125 C 3.253906 -0.398438 2.625 -0.96875 2.0625 -1.5 C 1.5 -2.03125 1.078125 -2.484375 0.796875 -2.859375 C 0.617188 -3.097656 0.503906 -3.300781 0.453125 -3.46875 C 0.398438 -3.632812 0.375 -3.785156 0.375 -3.921875 C 0.375 -4.117188 0.441406 -4.316406 0.578125 -4.515625 C 0.722656 -4.722656 0.96875 -4.828125 1.3125 -4.828125 C 1.71875 -4.828125 2.0625 -4.679688 2.34375 -4.390625 C 2.757812 -4.671875 2.96875 -5.046875 2.96875 -5.515625 C 2.96875 -5.742188 2.945312 -5.953125 2.90625 -6.140625 L 0 -6.140625 L 0 -7.46875 L 5.4375 -7.46875 L 5.4375 -6.140625 L 4.46875 -6.140625 C 4.507812 -6.023438 4.535156 -5.894531 4.546875 -5.75 C 4.566406 -5.601562 4.578125 -5.4375 4.578125 -5.25 C 4.578125 -4.695312 4.410156 -4.226562 4.078125 -3.84375 C 3.742188 -3.46875 3.269531 -3.160156 2.65625 -2.921875 C 2.96875 -2.609375 3.328125 -2.269531 3.734375 -1.90625 C 4.140625 -1.539062 4.5625 -1.191406 5 -0.859375 Z M 5 -0.859375 "/></g></g></g><g fill="#006a4e" fill-opacity="1"><g transform="translate(177.770885, 291.212354)"><g><path d="M 6.53125 -6.140625 L 6.53125 0 L 4.921875 0 L 4.921875 -3.59375 L 3.828125 -3.59375 C 3.390625 -3.59375 3.0625 -3.566406 2.84375 -3.515625 C 2.625 -3.472656 2.453125 -3.398438 2.328125 -3.296875 C 2.148438 -3.148438 2.0625 -2.945312 2.0625 -2.6875 C 2.0625 -2.414062 2.1875 -2.132812 2.4375 -1.84375 C 2.6875 -1.550781 3.050781 -1.222656 3.53125 -0.859375 L 2.484375 0.203125 C 2.109375 -0.109375 1.769531 -0.429688 1.46875 -0.765625 C 1.164062 -1.097656 0.921875 -1.445312 0.734375 -1.8125 C 0.546875 -2.175781 0.453125 -2.554688 0.453125 -2.953125 C 0.453125 -3.242188 0.503906 -3.503906 0.609375 -3.734375 C 0.722656 -3.960938 0.867188 -4.15625 1.046875 -4.3125 C 1.285156 -4.519531 1.570312 -4.671875 1.90625 -4.765625 C 2.25 -4.859375 2.734375 -4.90625 3.359375 -4.90625 L 4.921875 -4.90625 L 4.921875 -6.140625 L 0 -6.140625 L 0 -7.46875 L 7.65625 -7.46875 L 7.65625 -6.140625 Z M 6.53125 -6.140625 "/></g></g></g><g fill="#006a4e" fill-opacity="1"><g transform="translate(185.258902, 291.212354)"><g><path d="M 2.5625 -6.140625 L 2.5625 0 L 0.953125 0 L 0.953125 -6.140625 L 0 -6.140625 L 0 -7.46875 L 3.703125 -7.46875 L 3.703125 -6.140625 Z M 2.5625 -6.140625 "/></g></g></g><g fill="#006a4e" fill-opacity="1"><g transform="translate(188.78691, 291.212354)"><g/></g></g><g fill="#006a4e" fill-opacity="1"><g transform="translate(191.570913, 291.212354)"><g><path d="M 6.53125 -6.140625 L 6.53125 0 L 4.921875 0 L 4.921875 -3.59375 L 3.828125 -3.59375 C 3.390625 -3.59375 3.0625 -3.566406 2.84375 -3.515625 C 2.625 -3.472656 2.453125 -3.398438 2.328125 -3.296875 C 2.148438 -3.148438 2.0625 -2.945312 2.0625 -2.6875 C 2.0625 -2.414062 2.1875 -2.132812 2.4375 -1.84375 C 2.6875 -1.550781 3.050781 -1.222656 3.53125 -0.859375 L 2.484375 0.203125 C 2.109375 -0.109375 1.769531 -0.429688 1.46875 -0.765625 C 1.164062 -1.097656 0.921875 -1.445312 0.734375 -1.8125 C 0.546875 -2.175781 0.453125 -2.554688 0.453125 -2.953125 C 0.453125 -3.242188 0.503906 -3.503906 0.609375 -3.734375 C 0.722656 -3.960938 0.867188 -4.15625 1.046875 -4.3125 C 1.285156 -4.519531 1.570312 -4.671875 1.90625 -4.765625 C 2.25 -4.859375 2.734375 -4.90625 3.359375 -4.90625 L 4.921875 -4.90625 L 4.921875 -6.140625 L 0 -6.140625 L 0 -7.46875 L 7.65625 -7.46875 L 7.65625 -6.140625 Z M 6.53125 -6.140625 "/></g></g></g><g fill="#006a4e" fill-opacity="1"><g transform="translate(199.058931, 291.212354)"><g><path d="M -2.484375 -7.375 C -2.617188 -7.851562 -2.75 -8.238281 -2.875 -8.53125 C -3.007812 -8.832031 -3.160156 -9.050781 -3.328125 -9.1875 C -3.503906 -9.332031 -3.734375 -9.40625 -4.015625 -9.40625 C -4.171875 -9.40625 -4.316406 -9.390625 -4.453125 -9.359375 C -4.585938 -9.328125 -4.710938 -9.289062 -4.828125 -9.25 L -5.25 -10.515625 C -5.0625 -10.585938 -4.863281 -10.644531 -4.65625 -10.6875 C -4.457031 -10.726562 -4.238281 -10.75 -4 -10.75 C -3.675781 -10.75 -3.378906 -10.707031 -3.109375 -10.625 C -2.835938 -10.539062 -2.582031 -10.378906 -2.34375 -10.140625 C -2.101562 -9.910156 -1.878906 -9.570312 -1.671875 -9.125 C -1.460938 -8.6875 -1.257812 -8.101562 -1.0625 -7.375 Z M -2.484375 -7.375 "/></g></g></g><g fill="#006a4e" fill-opacity="1"><g transform="translate(199.058931, 291.212354)"><g/></g></g><g fill="#006a4e" fill-opacity="1"><g transform="translate(201.842935, 291.212354)"><g><path d="M 7.96875 -6.140625 L 7.96875 0 L 6.359375 0 L 6.359375 -2.8125 C 6.140625 -2.757812 5.914062 -2.722656 5.6875 -2.703125 C 5.46875 -2.679688 5.234375 -2.671875 4.984375 -2.671875 C 4.484375 -2.671875 4.050781 -2.710938 3.6875 -2.796875 C 3.320312 -2.890625 3.023438 -2.988281 2.796875 -3.09375 C 2.710938 -3.050781 2.628906 -3.007812 2.546875 -2.96875 C 2.835938 -2.625 3.175781 -2.269531 3.5625 -1.90625 C 3.957031 -1.539062 4.367188 -1.1875 4.796875 -0.84375 L 3.78125 0.203125 C 3.125 -0.398438 2.53125 -0.96875 2 -1.5 C 1.476562 -2.03125 1.078125 -2.484375 0.796875 -2.859375 C 0.617188 -3.097656 0.503906 -3.300781 0.453125 -3.46875 C 0.398438 -3.632812 0.375 -3.785156 0.375 -3.921875 C 0.375 -4.117188 0.441406 -4.316406 0.578125 -4.515625 C 0.722656 -4.722656 0.96875 -4.828125 1.3125 -4.828125 C 1.6875 -4.828125 2.003906 -4.707031 2.265625 -4.46875 C 2.359375 -4.613281 2.421875 -4.773438 2.453125 -4.953125 C 2.492188 -5.128906 2.515625 -5.3125 2.515625 -5.5 C 2.515625 -5.707031 2.484375 -5.921875 2.421875 -6.140625 L 0 -6.140625 L 0 -7.46875 L 9.09375 -7.46875 L 9.09375 -6.140625 Z M 4.84375 -4 C 5.132812 -4 5.394531 -4.007812 5.625 -4.03125 C 5.863281 -4.050781 6.109375 -4.097656 6.359375 -4.171875 L 6.359375 -6.140625 L 4.015625 -6.140625 C 4.046875 -6.023438 4.066406 -5.894531 4.078125 -5.75 C 4.097656 -5.601562 4.109375 -5.4375 4.109375 -5.25 C 4.109375 -5.007812 4.082031 -4.789062 4.03125 -4.59375 C 3.988281 -4.40625 3.925781 -4.234375 3.84375 -4.078125 C 4 -4.054688 4.160156 -4.035156 4.328125 -4.015625 C 4.492188 -4.003906 4.664062 -4 4.84375 -4 Z M 4.84375 -4 "/></g></g></g><g fill="#006a4e" fill-opacity="1"><g transform="translate(210.770951, 291.212354)"><g><path d="M 6.796875 -6.140625 L 6.796875 0 L 5.1875 0 L 5.1875 -2.65625 L 2.953125 -2.65625 L 2.953125 -2.453125 C 2.953125 -2.097656 2.878906 -1.847656 2.734375 -1.703125 C 2.585938 -1.566406 2.378906 -1.5 2.109375 -1.5 C 1.941406 -1.5 1.757812 -1.550781 1.5625 -1.65625 C 1.363281 -1.769531 1.171875 -1.914062 0.984375 -2.09375 C 0.804688 -2.269531 0.660156 -2.457031 0.546875 -2.65625 C 0.429688 -2.863281 0.375 -3.054688 0.375 -3.234375 C 0.375 -3.441406 0.429688 -3.613281 0.546875 -3.75 C 0.660156 -3.894531 0.882812 -3.96875 1.21875 -3.96875 L 1.34375 -3.96875 L 1.34375 -6.140625 L 0 -6.140625 L 0 -7.46875 L 7.9375 -7.46875 L 7.9375 -6.140625 Z M 5.1875 -6.140625 L 2.953125 -6.140625 L 2.953125 -3.96875 L 5.1875 -3.96875 Z M 5.1875 -6.140625 "/></g></g></g><g fill="#006a4e" fill-opacity="1"><g transform="translate(218.522961, 291.212354)"><g><path d="M 0.546875 2.796875 C 0.335938 2.898438 0.0859375 2.992188 -0.203125 3.078125 C -0.492188 3.171875 -0.847656 3.21875 -1.265625 3.21875 C -1.660156 3.21875 -2.015625 3.140625 -2.328125 2.984375 C -2.640625 2.835938 -2.882812 2.632812 -3.0625 2.375 C -3.25 2.113281 -3.34375 1.8125 -3.34375 1.46875 C -3.34375 0.894531 -3.140625 0.4375 -2.734375 0.09375 C -2.328125 -0.238281 -1.75 -0.429688 -1 -0.484375 L -0.859375 0.75 C -1.265625 0.78125 -1.539062 0.859375 -1.6875 0.984375 C -1.84375 1.117188 -1.921875 1.273438 -1.921875 1.453125 C -1.921875 1.816406 -1.675781 2 -1.1875 2 C -1 2 -0.8125 1.972656 -0.625 1.921875 C -0.4375 1.867188 -0.203125 1.769531 0.078125 1.625 Z M 0.546875 2.796875 "/></g></g></g><g fill="#006a4e" fill-opacity="1"><g transform="translate(218.522961, 291.212354)"><g><path d="M 10.25 1.53125 L 8.828125 2.046875 L 8.21875 0.28125 C 7.9375 0.59375 7.609375 0.878906 7.234375 1.140625 C 6.867188 1.410156 6.453125 1.628906 5.984375 1.796875 C 5.515625 1.960938 4.992188 2.046875 4.421875 2.046875 C 3.671875 2.046875 3.085938 1.882812 2.671875 1.5625 C 2.265625 1.238281 2.0625 0.820312 2.0625 0.3125 C 2.0625 0.101562 2.109375 -0.09375 2.203125 -0.28125 C 1.679688 -0.414062 1.242188 -0.640625 0.890625 -0.953125 C 0.546875 -1.265625 0.375 -1.691406 0.375 -2.234375 C 0.375 -2.566406 0.453125 -2.863281 0.609375 -3.125 C 0.773438 -3.394531 1 -3.601562 1.28125 -3.75 C 1.5625 -3.90625 1.882812 -3.984375 2.25 -3.984375 C 2.738281 -3.984375 3.132812 -3.863281 3.4375 -3.625 C 3.75 -3.394531 3.90625 -3.085938 3.90625 -2.703125 C 3.90625 -2.503906 3.875 -2.3125 3.8125 -2.125 C 3.75 -1.945312 3.644531 -1.773438 3.5 -1.609375 L 2.515625 -2.140625 C 2.546875 -2.191406 2.578125 -2.253906 2.609375 -2.328125 C 2.640625 -2.398438 2.65625 -2.46875 2.65625 -2.53125 C 2.65625 -2.613281 2.628906 -2.6875 2.578125 -2.75 C 2.523438 -2.820312 2.429688 -2.859375 2.296875 -2.859375 C 2.140625 -2.859375 2.003906 -2.800781 1.890625 -2.6875 C 1.785156 -2.570312 1.734375 -2.410156 1.734375 -2.203125 C 1.734375 -1.984375 1.800781 -1.804688 1.9375 -1.671875 C 2.070312 -1.535156 2.25 -1.4375 2.46875 -1.375 C 2.695312 -1.3125 2.9375 -1.273438 3.1875 -1.265625 C 3.457031 -1.378906 3.78125 -1.4375 4.15625 -1.4375 C 4.25 -1.4375 4.347656 -1.429688 4.453125 -1.421875 C 4.554688 -1.421875 4.632812 -1.410156 4.6875 -1.390625 L 4.578125 -0.203125 C 4.535156 -0.210938 4.484375 -0.21875 4.421875 -0.21875 C 4.367188 -0.21875 4.300781 -0.21875 4.21875 -0.21875 C 3.75 -0.21875 3.515625 -0.0507812 3.515625 0.28125 C 3.515625 0.414062 3.582031 0.53125 3.71875 0.625 C 3.863281 0.71875 4.113281 0.765625 4.46875 0.765625 C 5.46875 0.765625 6.414062 0.257812 7.3125 -0.75 C 7.28125 -0.75 7.25 -0.75 7.21875 -0.75 C 6.832031 -0.75 6.457031 -0.789062 6.09375 -0.875 C 5.726562 -0.96875 5.394531 -1.109375 5.09375 -1.296875 C 4.789062 -1.484375 4.546875 -1.734375 4.359375 -2.046875 C 4.179688 -2.359375 4.09375 -2.753906 4.09375 -3.234375 C 4.09375 -3.578125 4.15625 -3.878906 4.28125 -4.140625 C 4.414062 -4.398438 4.597656 -4.617188 4.828125 -4.796875 C 5.085938 -4.992188 5.394531 -5.144531 5.75 -5.25 C 6.101562 -5.363281 6.5 -5.429688 6.9375 -5.453125 L 6.9375 -6.140625 L 0 -6.140625 L 0 -7.46875 L 10.515625 -7.46875 L 10.515625 -6.140625 L 8.53125 -6.140625 L 8.53125 -4.140625 L 7.921875 -4.140625 C 7.453125 -4.140625 7.09375 -4.117188 6.84375 -4.078125 C 6.59375 -4.035156 6.378906 -3.972656 6.203125 -3.890625 C 5.867188 -3.722656 5.703125 -3.46875 5.703125 -3.125 C 5.703125 -2.8125 5.820312 -2.554688 6.0625 -2.359375 C 6.3125 -2.171875 6.738281 -2.078125 7.34375 -2.078125 C 7.375 -2.078125 7.40625 -2.078125 7.4375 -2.078125 C 7.46875 -2.078125 7.507812 -2.082031 7.5625 -2.09375 C 7.550781 -2.132812 7.539062 -2.175781 7.53125 -2.21875 C 7.53125 -2.269531 7.53125 -2.3125 7.53125 -2.34375 C 7.53125 -2.632812 7.640625 -2.84375 7.859375 -2.96875 C 8.078125 -3.101562 8.3125 -3.171875 8.5625 -3.171875 C 8.988281 -3.171875 9.3125 -3.054688 9.53125 -2.828125 C 9.75 -2.597656 9.859375 -2.332031 9.859375 -2.03125 C 9.859375 -1.757812 9.796875 -1.550781 9.671875 -1.40625 C 9.554688 -1.257812 9.410156 -1.140625 9.234375 -1.046875 Z M 10.25 1.53125 "/></g></g></g><g fill="#006a4e" fill-opacity="1"><g transform="translate(228.866977, 291.212354)"><g><path d="M 0.953125 -6.140625 L 0 -6.140625 L 0 -7.46875 L 0.96875 -7.46875 C 0.71875 -8.101562 0.425781 -8.585938 0.09375 -8.921875 C -0.226562 -9.265625 -0.601562 -9.4375 -1.03125 -9.4375 C -1.351562 -9.4375 -1.59375 -9.351562 -1.75 -9.1875 C -1.90625 -9.019531 -1.984375 -8.804688 -1.984375 -8.546875 C -1.984375 -8.316406 -1.953125 -8.101562 -1.890625 -7.90625 C -1.828125 -7.71875 -1.75 -7.539062 -1.65625 -7.375 L -3.21875 -7.375 C -3.351562 -7.644531 -3.445312 -7.890625 -3.5 -8.109375 C -3.5625 -8.335938 -3.59375 -8.566406 -3.59375 -8.796875 C -3.59375 -9.398438 -3.382812 -9.875 -2.96875 -10.21875 C -2.550781 -10.570312 -1.96875 -10.75 -1.21875 -10.75 C -0.53125 -10.75 0.046875 -10.597656 0.515625 -10.296875 C 0.984375 -10.003906 1.367188 -9.609375 1.671875 -9.109375 C 1.984375 -8.617188 2.242188 -8.070312 2.453125 -7.46875 L 3.703125 -7.46875 L 3.703125 -6.140625 L 2.5625 -6.140625 L 2.5625 0 L 0.953125 0 Z M 0.953125 -6.140625 "/></g></g></g><g fill="#006a4e" fill-opacity="1"><g transform="translate(232.392925, 291.212354)"><g/></g></g></svg>